<?xml version="1.0" encoding="UTF-8" standalone="no"?>
<svg
   width="299.678"
   height="41.63"
   viewBox="0 0 5946 826"
   version="1.1"
   id="svg1438"
   xmlns="http://www.w3.org/2000/svg"
   xmlns:svg="http://www.w3.org/2000/svg"
   xmlns:rdf="http://www.w3.org/1999/02/22-rdf-syntax-ns#"
   xmlns:x="adobe:ns:meta/">
  <defs
     id="defs1442" />
  <metadata
     id="metadata1435">
<?xpacket begin="﻿" id="W5M0MpCehiHzreSzNTczkc9d"?>    <x:xmpmeta
       x:xmptk="Adobe XMP Core 5.6-c138 79.159824, 2016/09/14-01:09:01        ">
      <rdf:RDF>
        <rdf:Description
           rdf:about="" />
      </rdf:RDF>
    </x:xmpmeta>
<?xpacket end="w"?>  </metadata>
  <path
     d="m 355.70847,434.11473 v 27.37667 h -99.7916 v -27.37667 c 0,-27.35584 22.27995,-49.88534 49.90622,-49.88534 13.79233,0 26.14926,5.57517 35.11531,14.77003 9.19489,8.96604 14.77007,21.55184 14.77007,35.11531 M 418.92851,765.46354 84.916929,584.76949 132.63888,389.5549 60.702378,59.912003 418.92851,272.80898 777.15464,59.912003 v -0.249664 h 0.24964 l -54.254,248.261951 h -78.73902 l 19.86678,-91.30397 -205.86561,122.30033 c -12.1281,7.28098 -25.67079,10.90067 -39.48392,10.90067 -13.5635,0 -27.12699,-3.61969 -39.23428,-10.90067 L 173.80784,216.62032 207.96617,373.32864 c 2.41313,11.37916 2.41313,23.23682 -0.47849,34.63682 L 174.05743,545.2855 418.92851,678.02893 664.04922,545.2855 643.9328,462.21948 H 485.28979 v -25.67079 c 0,-28.35441 23.00802,-51.3624 51.34159,-51.3624 h 169.56453 l -0.7489,4.36861 47.49304,195.21459 z M 836.48455,72.747394 C 840.37467,54.815245 836.00606,35.926196 824.37724,21.884242 805.2386,-2.3303117 767.21085,-6.4493312 743.49554,9.5273404 L 418.92851,202.3287 94.132628,9.2985147 C 70.146902,-6.4493312 32.59763,-2.101486 13.458996,21.634657 1.8509295,35.926196 -2.517679,54.815245 1.3516806,72.747394 L 70.396566,388.82682 26.065562,570.22821 c -6.532148,26.89818 5.824753,54.50368 30.039386,67.58874 L 390.09568,818.73978 c 8.96605,4.84709 18.90984,7.26022 28.83283,7.26022 9.92299,0 19.86678,-2.41313 28.81203,-7.26022 L 781.75208,637.81695 c 24.23536,-13.08506 36.5715,-40.69056 30.03943,-67.58874 l -44.33102,-181.40139 14.77007,-67.81748 z"
     style="fill:#d1363e;fill-opacity:1;fill-rule:nonzero;stroke:none;stroke-width:20.8029"
     id="path844" />
  <path
     d="m 3063.0301,681.39663 h 109.961 V 144.79911 h -109.961 z"
     style="fill:#ffffff;fill-opacity:1;fill-rule:nonzero;stroke:none;stroke-width:34.6662"
     id="path846" />
  <path
     d="M 3694.2109,500.27905 3362.3171,154.06801 c -7.8693,-8.14657 -17.4371,-13.3811 -28.4609,-15.46118 -10.8505,-2.14926 -21.6664,-1.07463 -32.2743,3.25863 -9.7411,4.47203 -17.8184,11.26655 -24.0583,20.27979 -6.3439,9.15187 -9.5332,19.48243 -9.5332,30.74885 v 488.48104 h 109.9611 V 325.90817 l 331.8245,346.52305 c 5.4079,5.68529 11.7172,9.87978 18.7891,12.47982 6.7252,2.46126 13.5892,3.74398 20.2797,3.74398 7.5226,0 14.7679,-1.42136 21.4931,-4.22935 6.7599,-2.80798 12.6531,-6.7252 17.6104,-11.68246 4.8879,-4.88793 8.8399,-10.78118 11.7865,-17.43707 2.9466,-6.79465 4.4372,-14.21318 4.4372,-22.01301 V 144.81209 h -109.9611 z"
     style="fill:#ffffff;fill-opacity:1;fill-rule:nonzero;stroke:none;stroke-width:34.6662"
     id="path850" />
  <path
     d="m 2247.6747,178.9236 c -3.12,-6.89857 -6.8985,-13.13841 -11.8904,-18.13039 -4.992,-5.02657 -11.2665,-8.77056 -17.5065,-11.92514 -6.8986,-2.46127 -14.421,-4.36798 -21.909,-4.36798 h -212.7462 c -38.1675,0 -74.463,6.89856 -106.9798,20.0371 -32.5515,13.13842 -61.3244,31.89294 -85.1054,55.6739 -23.7811,23.78096 -42.5355,51.92991 -56.2979,85.10542 -13.1385,32.5168 -20.0371,68.81231 -20.0371,107.6038 v 268.4201 h 110.1345 v -268.4201 c 0,-25.02895 3.7439,-46.93805 10.6424,-64.44445 6.864,-17.50639 15.6346,-32.51679 26.277,-43.78334 10.6078,-11.89055 22.4984,-20.66111 35.6715,-27.55968 13.1385,-6.86384 25.6184,-11.85582 36.8848,-15.0104 11.8905,-3.11999 22.5331,-5.61598 31.3035,-6.23984 8.736,-0.624 14.3865,-1.248 17.5065,-1.248 h 158.3203 V 443.59984 H 1998.009 l -110.0998,110.13439 h 254.0337 v 127.60618 h 110.0998 V 200.2087 c 0,-7.52256 -1.872,-15.04512 -4.368,-21.2851"
     style="fill:#ffffff;fill-opacity:1;fill-rule:nonzero;stroke:none;stroke-width:34.6662"
     id="path854" />
  <path
     d="m 2927.558,139.29688 -0.2426,-0.0694 c -12.1679,-3.05067 -24.1277,-2.42668 -35.4289,2.11454 -11.3704,4.47202 -20.4183,12.20254 -26.9702,22.94901 L 2656.5379,526.55247 2448.1596,164.29098 c -3.1199,-5.33858 -7.0025,-10.01856 -11.5439,-13.86645 -4.5065,-3.81331 -9.6025,-6.79453 -15.1144,-8.94393 -5.4079,-2.07994 -11.0932,-3.32794 -16.9517,-3.70926 -5.8586,-0.51995 -11.7865,0.0341 -17.9225,1.49068 -11.9944,3.36267 -21.8743,10.05315 -29.3276,19.86375 -7.4532,9.84519 -11.1971,21.21565 -11.1971,33.76479 V 681.3716 h 109.9612 V 392.53308 l 153.7097,269.18273 c 4.8185,8.83988 11.5439,15.5998 20.0024,20.17574 8.2505,4.4719 17.2637,6.75993 26.7622,6.75993 9.7066,0 18.9278,-2.25331 27.421,-6.69061 8.7012,-4.61053 15.5651,-11.37046 20.4183,-20.10643 L 2857.3591,392.63699 V 681.3716 h 110.6891 V 192.89056 c 0,-12.58373 -3.8133,-23.98892 -11.4052,-33.79952 -7.5226,-9.77587 -17.3332,-16.43176 -29.085,-19.7943"
     style="fill:#ffffff;fill-opacity:1;fill-rule:nonzero;stroke:none;stroke-width:34.6662"
     id="path858" />
  <path
     d="m 1641.9979,412.93774 v 213.3702 c 0,7.48784 -1.248,15.01041 -4.3679,21.87438 -2.5307,6.27457 -6.2746,12.51441 -11.2665,17.54112 -5.0266,4.99185 -11.2666,8.73583 -17.5412,11.26642 -6.8638,3.11998 -14.3864,4.36798 -21.8743,4.36798 h -341.011 c -9.3946,0 -19.4131,-1.248 -29.397,-3.11999 -10.6425,-2.49599 -21.2851,-5.65057 -31.9275,-10.01855 -10.0185,-4.99185 -20.0024,-10.64242 -29.3969,-18.16499 -9.3946,-7.48797 -18.1651,-16.25853 -25.653,-26.90095 -6.8985,-10.01855 -13.1385,-22.49837 -17.5411,-36.26078 -4.3679,-13.13854 -6.2399,-28.80767 -6.2399,-45.69006 V 285.29683 c 0,-9.39455 0.624,-19.41298 3.12,-30.05553 1.872,-10.60782 5.6506,-20.62638 10.0185,-31.26893 4.3679,-10.01842 10.6425,-20.03698 18.1304,-29.39681 7.5226,-10.01855 16.2931,-18.16512 26.9009,-25.68768 10.6426,-7.48784 22.5331,-13.10382 36.2955,-17.50639 13.1386,-4.36799 28.773,-6.86398 45.6901,-6.86398 h 391.693 v 110.0998 h -391.693 c -10.0186,0 -17.5411,2.49599 -23.1571,7.52256 -4.9919,4.99198 -7.5226,13.13854 -7.5226,23.78096 v 255.28169 c 0,10.01855 2.5307,17.50639 8.1466,22.53297 4.992,4.99198 12.5145,7.48797 22.5331,7.48797 h 285.9265 V 468.6115 h -188.9307 l 110.0998,-110.72365 h 133.9154 c 7.4879,0 15.0105,1.21327 21.8743,4.36785 6.8986,3.11999 12.5146,6.86397 17.5412,11.89055 4.9919,4.99198 8.7358,11.26655 11.2665,17.50639 3.1199,6.86397 4.3679,13.76254 4.3679,21.2851"
     style="fill:#ffffff;fill-opacity:1;fill-rule:nonzero;stroke:none;stroke-width:34.6662"
     id="path862" />
  <path
     d="m 4428.2253,412.93774 v 213.3702 c 0,7.48784 -1.248,15.01041 -4.368,21.87438 -2.5306,6.27457 -6.8985,12.51441 -11.8904,17.54112 -5.0266,4.99185 -10.6425,8.73583 -17.5411,11.26642 -6.2398,3.11998 -13.7624,4.36798 -21.8744,4.36798 h -340.3871 c -9.3944,0 -19.413,-1.248 -30.0555,-3.11999 -10.6426,-2.49599 -21.2504,-5.65057 -31.269,-10.01855 -10.6424,-4.99185 -20.6609,-10.64242 -30.0555,-18.16499 -9.3598,-7.48797 -18.1304,-16.25853 -24.9942,-26.90095 -7.5226,-10.01855 -13.1386,-22.49837 -17.5411,-36.26078 -4.368,-13.13854 -6.864,-28.80767 -6.864,-45.69006 V 285.29683 c 0,-9.39455 1.248,-19.41298 3.12,-30.05553 2.496,-10.60782 5.6505,-20.62638 10.6425,-31.26893 4.368,-10.01842 10.6426,-20.03698 18.1304,-29.39681 6.8986,-10.01855 16.2931,-18.16512 26.277,-25.68768 10.6425,-7.48784 22.5329,-13.10382 36.2955,-17.50639 13.7624,-4.36799 28.7729,-6.86398 46.3139,-6.86398 h 391.693 v 110.0998 h -391.693 c -10.6424,0 -18.165,2.49599 -23.157,7.52256 -4.9918,4.99198 -7.5225,13.13854 -7.5225,23.78096 v 255.28169 c 0,10.01855 2.5307,17.50639 7.5225,22.53297 5.616,4.99198 13.1386,7.48797 23.157,7.48797 h 285.9266 V 468.6115 h -189.5892 l 110.7584,-110.72365 h 133.2913 c 8.112,0 15.6346,1.21327 22.4984,4.36785 6.2746,3.11999 12.5145,6.86397 17.5411,11.89055 4.3679,4.99198 8.7358,11.26655 11.2664,17.50639 3.12,6.86397 4.368,13.76254 4.368,21.2851"
     style="fill:#ffffff;fill-opacity:1;fill-rule:nonzero;stroke:none;stroke-width:34.6662"
     id="path866" />
  <path
     d="m 5574.5766,262.32371 c 5.0959,-5.06129 12.5839,-7.52256 22.8797,-7.52256 h 348.5683 V 144.8054 h -348.5683 c -16.9864,0 -32.4476,2.21859 -46.002,6.55185 -13.5197,4.33325 -25.653,10.26123 -36.0528,17.57584 -10.3652,7.31448 -19.4478,15.84235 -26.8663,25.37555 -7.3839,9.39456 -13.4851,19.41311 -18.0958,29.77826 -4.5759,10.26123 -7.9384,20.83433 -10.1224,31.40757 -2.1493,10.50378 -3.2587,20.48774 -3.2587,29.70893 v 255.80165 c 0,16.95171 2.2186,32.44747 6.552,46.14056 4.3333,13.62391 10.2611,25.82632 17.5757,36.26092 7.3145,10.39974 15.8771,19.41298 25.4103,26.76218 9.4291,7.21056 19.4131,13.24258 29.7435,17.81839 10.2613,4.57594 20.8344,7.97333 31.4076,10.15719 10.5039,2.1494 20.4877,3.22403 29.7089,3.22403 h 348.5683 V 571.40717 h -348.5683 c -10.0531,0 -17.4718,-2.53058 -22.7063,-7.73052 -5.1999,-5.19994 -7.6959,-12.61846 -7.6959,-22.6716 V 285.93131 c 0,-10.67714 2.5306,-18.61575 7.5225,-23.6076"
     style="fill:#d1363e;fill-opacity:1;fill-rule:nonzero;stroke:none;stroke-width:34.6662"
     id="path870" />
  <path
     d="m 5381.2052,247.96823 c -6.136,-13.41581 -14.0399,-26.41559 -23.4344,-38.72204 -9.4985,-12.44523 -21.2157,-23.57301 -34.7701,-33.07161 -13.5199,-9.46388 -29.3276,-17.15967 -46.9727,-22.81024 -17.6104,-5.6853 -37.7514,-8.56261 -59.7644,-8.56261 H 5002.616 c -13.7972,0 -28.9809,2.49599 -45.17,7.41852 -16.3279,4.99198 -31.685,13.06923 -45.586,24.05837 -14.0053,11.02387 -25.8264,25.68768 -35.1169,43.54067 -9.3945,18.02648 -14.1438,40.00476 -14.1438,65.38045 v 396.16491 h 109.9611 v -127.88345 0 -109.99575 0 -158.28571 c 0,-10.29583 2.4613,-17.7838 7.5572,-22.8797 4.992,-4.99198 12.7918,-7.52256 23.2264,-7.52256 h 212.9196 c 11.2664,0 21.2156,1.80267 29.6742,5.3733 8.4238,3.57062 15.7037,8.52788 21.5624,14.73313 5.9278,6.27457 10.7118,13.97036 14.2477,22.91428 3.6054,9.2212 5.9973,19.55175 7.072,29.8823 v 42.88195 c 0,11.05859 -1.7334,21.00769 -5.2347,29.60489 -3.4666,8.52788 -8.3545,15.87721 -14.5598,21.87438 -6.2745,6.06661 -13.9357,10.95455 -22.8103,14.55977 -9.0132,3.67466 -19.2744,5.99729 -29.9515,6.86397 H 4972.5604 V 553.4812 h 243.7032 c 12.0985,0 25.133,-1.42136 38.7913,-4.1599 13.6932,-2.73867 27.4211,-7.24529 40.9062,-13.20786 13.4158,-6.06661 26.5196,-13.9705 38.7914,-23.50369 12.4452,-9.63724 23.5384,-21.38901 33.0368,-34.94347 9.4986,-13.55445 17.1251,-29.36221 22.6718,-46.97265 5.5118,-17.64503 8.3545,-37.8555 8.3545,-60.11119 v -42.88195 c 0,-12.06391 -1.4214,-25.133 -4.16,-38.79149 -2.7733,-13.69309 -7.3145,-27.49023 -13.4504,-40.94077"
     style="fill:#d1363e;fill-opacity:1;fill-rule:nonzero;stroke:none;stroke-width:34.6662"
     id="path874" />
  <path
     d="m 4650.7093,350.96832 c -34.3195,0 -62.1219,27.80235 -62.1219,62.12182 0,34.31947 27.8024,62.12182 62.1219,62.12182 34.3194,0 62.1218,-27.80235 62.1218,-62.12182 0,-34.31947 -27.8024,-62.12182 -62.1218,-62.12182"
     style="fill:#d1363e;fill-opacity:1;fill-rule:nonzero;stroke:none;stroke-width:34.6662"
     id="path880" />
</svg>
